<svg xmlns="http://www.w3.org/2000/svg" version="1.1" xmlns:xlink="http://www.w3.org/1999/xlink" xmlns:svgjs="http://svgjs.dev/svgjs" width="1000" height="1000" viewBox="0 0 1000 1000"><rect width="1000" height="1000" fill="#ffffff"></rect><g transform="matrix(0.7,0,0,0.7,149.57575757575756,282.1265587044535)"><svg viewBox="0 0 396 247" data-background-color="#ffffff" preserveAspectRatio="xMidYMid meet" height="623" width="1000" xmlns="http://www.w3.org/2000/svg" xmlns:xlink="http://www.w3.org/1999/xlink"><g id="tight-bounds" transform="matrix(1,0,0,1,0.2400000000000091,-0.09999999999999432)"><svg viewBox="0 0 395.52 247.2" height="247.2" width="395.52"><g><svg></svg></g><g><svg viewBox="0 0 395.52 247.2" height="247.2" width="395.52"><g transform="matrix(1,0,0,1,39.55199999999999,58.107246677893926)"><svg viewBox="0 0 316.416 130.98550664421214" height="130.98550664421214" width="316.416"><g><svg viewBox="0 0 316.416 130.98550664421214" height="130.98550664421214" width="316.416"><g><svg viewBox="0 0 316.416 130.98550664421214" height="130.98550664421214" width="316.416"><g><svg viewBox="0 0 316.416 130.98550664421214" height="130.98550664421214" width="316.416"><g id="textblocktransform"><svg viewBox="0 0 316.416 130.98550664421214" height="130.98550664421214" width="316.416" id="textblock"><g><svg viewBox="0 0 316.416 78.30482157753268" height="78.30482157753268" width="316.416"><g transform="matrix(1,0,0,1,0,0)"><svg width="316.416" viewBox="-2.566666603088379 -41 180.80667114257812 45.5" height="78.30482157753268" data-palette-color="#35185a"><path d="M15.5-31.35L16.4-31.15 4.25-0.95Q4.05-0.45 3.7-0.2 3.35 0.05 2.9 0.05L2.9 0.05Q2.2 0.05 1.85-0.33 1.5-0.7 1.45-1.25L1.45-1.25Q1.4-1.5 1.5-1.85L1.5-1.85 14.7-34.15Q14.95-34.7 15.33-34.93 15.7-35.15 16.2-35.15L16.2-35.15Q16.7-35.15 17.07-34.88 17.45-34.6 17.65-34.15L17.65-34.15 30.8-2Q30.9-1.7 30.9-1.4L30.9-1.4Q30.9-0.7 30.45-0.33 30 0.05 29.4 0.05L29.4 0.05Q28.9 0.05 28.53-0.23 28.15-0.5 27.95-0.95L27.95-0.95 15.5-31.35ZM24.5-10.1L7.15-10.1 8.4-13.05 23.9-13.05 24.5-10.1ZM48.35-26.15L48.35-26.15Q51.65-26.15 53.62-24.83 55.6-23.5 56.47-21.23 57.35-18.95 57.35-16.2L57.35-16.2 57.35-1.5Q57.35-0.9 56.9-0.45 56.45 0 55.85 0L55.85 0Q55.15 0 54.75-0.45 54.35-0.9 54.35-1.5L54.35-1.5 54.35-16.05Q54.35-18.05 53.7-19.7 53.05-21.35 51.57-22.35 50.1-23.35 47.7-23.35L47.7-23.35Q45.55-23.35 43.62-22.35 41.7-21.35 40.5-19.7 39.3-18.05 39.3-16.05L39.3-16.05 39.3-1.5Q39.3-0.9 38.85-0.45 38.4 0 37.8 0L37.8 0Q37.1 0 36.7-0.45 36.3-0.9 36.3-1.5L36.3-1.5 36.3-23.9Q36.3-24.5 36.72-24.95 37.15-25.4 37.8-25.4L37.8-25.4Q38.45-25.4 38.87-24.95 39.3-24.5 39.3-23.9L39.3-23.9 39.3-19.7 38.15-17.9Q38.25-19.5 39.17-20.98 40.1-22.45 41.55-23.63 43-24.8 44.77-25.48 46.55-26.15 48.35-26.15ZM68.09-24.5L68.09-1.5Q68.09-0.9 67.65-0.45 67.2 0 66.59 0L66.59 0Q65.95 0 65.52-0.45 65.09-0.9 65.09-1.5L65.09-1.5 65.09-24.5Q65.09-25.1 65.52-25.55 65.95-26 66.59-26L66.59-26Q67.25-26 67.67-25.55 68.09-25.1 68.09-24.5L68.09-24.5ZM66.59-29.35L66.59-29.35Q65.55-29.35 65.02-29.83 64.5-30.3 64.5-31.2L64.5-31.2 64.5-31.7Q64.5-32.6 65.07-33.08 65.65-33.55 66.65-33.55L66.65-33.55Q67.59-33.55 68.12-33.08 68.65-32.6 68.65-31.7L68.65-31.7 68.65-31.2Q68.65-30.3 68.12-29.83 67.59-29.35 66.59-29.35ZM77.39 0L77.39 0Q76.69 0 76.29-0.45 75.89-0.9 75.89-1.5L75.89-1.5 75.89-23.9Q75.89-24.5 76.32-24.95 76.74-25.4 77.39-25.4L77.39-25.4Q78.04-25.4 78.47-24.95 78.89-24.5 78.89-23.9L78.89-23.9 78.89-16.4 78.14-16.25Q78.29-18 79.02-19.73 79.74-21.45 80.99-22.9 82.24-24.35 83.97-25.25 85.69-26.15 87.84-26.15L87.84-26.15Q88.74-26.15 89.59-25.78 90.44-25.4 90.44-24.55L90.44-24.55Q90.44-23.8 90.04-23.4 89.64-23 89.09-23L89.09-23Q88.64-23 88.12-23.25 87.59-23.5 86.74-23.5L86.74-23.5Q85.34-23.5 83.94-22.68 82.54-21.85 81.39-20.45 80.24-19.05 79.57-17.32 78.89-15.6 78.89-13.85L78.89-13.85 78.89-1.5Q78.89-0.9 78.44-0.45 77.99 0 77.39 0ZM114.24-25.4L114.24-25.4Q114.89-25.4 115.32-24.95 115.74-24.5 115.74-23.9L115.74-23.9 115.74-9.8Q115.74-4.85 112.94-2.25 110.14 0.35 105.39 0.35L105.39 0.35Q100.69 0.35 97.92-2.25 95.14-4.85 95.14-9.8L95.14-9.8 95.14-23.9Q95.14-24.5 95.57-24.95 95.99-25.4 96.64-25.4L96.64-25.4Q97.29-25.4 97.72-24.95 98.14-24.5 98.14-23.9L98.14-23.9 98.14-9.8Q98.14-6.2 100.07-4.33 101.99-2.45 105.39-2.45L105.39-2.45Q108.84-2.45 110.79-4.33 112.74-6.2 112.74-9.8L112.74-9.8 112.74-23.9Q112.74-24.5 113.14-24.95 113.54-25.4 114.24-25.4ZM144.34-37L144.34-37Q144.99-37 145.41-36.58 145.84-36.15 145.84-35.5L145.84-35.5 145.84-1.5Q145.84-0.9 145.39-0.45 144.94 0 144.34 0L144.34 0Q143.64 0 143.24-0.45 142.84-0.9 142.84-1.5L142.84-1.5 142.84-7.45 143.69-8.15Q143.69-6.75 142.94-5.23 142.19-3.7 140.81-2.4 139.44-1.1 137.61-0.3 135.79 0.5 133.64 0.5L133.64 0.5Q130.34 0.5 127.66-1.25 124.99-3 123.44-6 121.89-9 121.89-12.85L121.89-12.85Q121.89-16.65 123.44-19.68 124.99-22.7 127.64-24.43 130.29-26.15 133.59-26.15L133.59-26.15Q135.69-26.15 137.54-25.4 139.39-24.65 140.81-23.35 142.24-22.05 143.06-20.38 143.89-18.7 143.89-16.9L143.89-16.9 142.84-17.65 142.84-35.5Q142.84-36.1 143.24-36.55 143.64-37 144.34-37ZM133.94-2.3L133.94-2.3Q136.59-2.3 138.64-3.68 140.69-5.05 141.86-7.43 143.04-9.8 143.04-12.85L143.04-12.85Q143.04-15.85 141.86-18.23 140.69-20.6 138.64-21.98 136.59-23.35 133.94-23.35L133.94-23.35Q131.34-23.35 129.26-21.98 127.19-20.6 126.01-18.23 124.84-15.85 124.84-12.85L124.84-12.85Q124.84-9.85 126.01-7.45 127.19-5.05 129.26-3.68 131.34-2.3 133.94-2.3ZM165.34-25.75L165.34-25.75Q168.49-25.75 170.44-24.4 172.39-23.05 173.31-20.75 174.24-18.45 174.24-15.65L174.24-15.65 174.24-1.5Q174.24-0.9 173.79-0.45 173.34 0 172.74 0L172.74 0Q172.04 0 171.64-0.45 171.24-0.9 171.24-1.5L171.24-1.5 171.24-15.65Q171.24-17.7 170.61-19.35 169.99-21 168.59-21.98 167.19-22.95 164.84-22.95L164.84-22.95Q162.74-22.95 160.86-21.98 158.99-21 157.84-19.35 156.69-17.7 156.69-15.65L156.69-15.65 156.69-1.5Q156.69-0.9 156.24-0.45 155.79 0 155.19 0L155.19 0Q154.49 0 154.09-0.45 153.69-0.9 153.69-1.5L153.69-1.5 153.69-35.5Q153.69-36.1 154.11-36.55 154.54-37 155.19-37L155.19-37Q155.84-37 156.26-36.55 156.69-36.1 156.69-35.5L156.69-35.5 156.69-19.3 155.54-17.55Q155.64-19.1 156.51-20.58 157.39-22.05 158.79-23.23 160.19-24.4 161.89-25.08 163.59-25.75 165.34-25.75Z" opacity="1" transform="matrix(1,0,0,1,0,0)" fill="#000000" class="undefined-text-0" data-fill-palette-color="primary" id="text-0"></path></svg></g></svg></g><g transform="matrix(1,0,0,1,3.5,93.88281797534526)"><svg viewBox="0 0 309.416 37.10268866886688" height="37.10268866886688" width="309.416"><g transform="matrix(1,0,0,1,0,0)"><svg width="309.416" viewBox="-1.8499999046325684 -40.75 455.4599914550781 55.5" height="37.10268866886688" data-palette-color="#35185a"><path d="M16-33.5L16-33.5Q20.35-33.5 23.5-31.73 26.65-29.95 28.75-26.5L28.75-26.5 25.4-23.9Q23.55-27.1 21.23-28.43 18.9-29.75 15.6-29.75L15.6-29.75Q12.95-29.75 11.23-29 9.5-28.25 8.7-27.03 7.9-25.8 7.9-24.25L7.9-24.25Q7.9-22.5 9-21.18 10.1-19.85 13.4-19.1L13.4-19.1 20.55-17.5Q25.3-16.45 27.18-14.33 29.05-12.2 29.05-9.05L29.05-9.05Q29.05-6.25 27.48-4.08 25.9-1.9 23.05-0.7 20.2 0.5 16.35 0.5L16.35 0.5Q12.75 0.5 10.03-0.48 7.3-1.45 5.35-3.1 3.4-4.75 2.15-6.8L2.15-6.8 5.65-9.65Q6.6-7.75 8.1-6.3 9.6-4.85 11.73-4.05 13.85-3.25 16.6-3.25L16.6-3.25Q19.15-3.25 21.03-3.88 22.9-4.5 23.9-5.73 24.9-6.95 24.9-8.7L24.9-8.7Q24.9-10.3 23.85-11.58 22.8-12.85 19.9-13.5L19.9-13.5 12.15-15.25Q9.1-15.95 7.23-17.18 5.35-18.4 4.53-20.08 3.7-21.75 3.7-23.7L3.7-23.7Q3.7-26.35 5.18-28.58 6.65-30.8 9.43-32.15 12.2-33.5 16-33.5ZM47.05-25.5L47.05-25.5Q50.6-25.5 53.32-23.95 56.05-22.4 57.6-19.48 59.15-16.55 59.15-12.5L59.15-12.5Q59.15-8.45 57.6-5.53 56.05-2.6 53.32-1.05 50.6 0.5 47.05 0.5L47.05 0.5Q43.55 0.5 40.8-1.05 38.05-2.6 36.5-5.53 34.95-8.45 34.95-12.5L34.95-12.5Q34.95-16.55 36.5-19.48 38.05-22.4 40.8-23.95 43.55-25.5 47.05-25.5ZM47.05-22.05L47.05-22.05Q44.5-22.05 42.7-20.9 40.9-19.75 39.92-17.63 38.95-15.5 38.95-12.5L38.95-12.5Q38.95-9.55 39.92-7.4 40.9-5.25 42.7-4.1 44.5-2.95 47.05-2.95L47.05-2.95Q49.6-2.95 51.4-4.1 53.2-5.25 54.17-7.4 55.15-9.55 55.15-12.5L55.15-12.5Q55.15-15.5 54.17-17.63 53.2-19.75 51.4-20.9 49.6-22.05 47.05-22.05ZM76.85-36.75L76.85-36.75Q78.15-36.75 79.3-36.45 80.45-36.15 81.1-35.6L81.1-35.6 80.05-32.35Q79.45-32.75 78.75-32.93 78.05-33.1 77.2-33.1L77.2-33.1Q75.05-33.1 73.85-32.08 72.65-31.05 72.65-28.8L72.65-28.8 72.65-25 72.65-23.7 72.65 0 68.65 0 68.65-29.2Q68.65-30.85 69.15-32.25 69.65-33.65 70.67-34.65 71.7-35.65 73.25-36.2 74.8-36.75 76.85-36.75ZM63.65-25L81-25 81-21.55 63.65-21.55 63.65-25ZM88.24-31L92.24-32.1 92.24-6.9Q92.24-5.05 93.29-4.15 94.34-3.25 95.99-3.25L95.99-3.25Q97.44-3.25 98.49-3.75 99.54-4.25 100.39-5.1L100.39-5.1 101.79-1.75Q100.64-0.7 99.07-0.1 97.49 0.5 95.44 0.5L95.44 0.5Q93.54 0.5 91.89-0.18 90.24-0.85 89.27-2.33 88.29-3.8 88.24-6.2L88.24-6.2 88.24-31ZM83.24-25L101.34-25 101.34-21.55 83.24-21.55 83.24-25ZM132.34-4.65L138.64-25 143.09-25 134.39 0 130.39 0 123.34-19.9 116.69 0 112.69 0 103.99-25 108.44-25 114.74-4.65 121.54-25 125.54-25 132.34-4.65ZM163.69-9.25L163.69-16.15Q163.69-18.95 162.19-20.48 160.69-22 157.94-22L157.94-22Q155.34-22 153.54-20.88 151.74-19.75 150.89-17.25L150.89-17.25 147.64-19.25Q148.64-22.05 151.34-23.78 154.04-25.5 158.04-25.5L158.04-25.5Q160.74-25.5 162.94-24.58 165.14-23.65 166.41-21.78 167.69-19.9 167.69-16.95L167.69-16.95 167.69-4.85Q167.69-3.05 169.59-3.05L169.59-3.05Q170.54-3.05 171.44-3.3L171.44-3.3 171.24-0.15Q170.24 0.35 168.64 0.35L168.64 0.35Q167.19 0.35 166.04-0.2 164.89-0.75 164.24-1.88 163.59-3 163.59-4.7L163.59-4.7 163.59-5.2 164.59-5.05Q163.99-3.1 162.54-1.88 161.09-0.65 159.29-0.08 157.49 0.5 155.74 0.5L155.74 0.5Q153.54 0.5 151.64-0.25 149.74-1 148.61-2.53 147.49-4.05 147.49-6.3L147.49-6.3Q147.49-9.1 149.36-10.93 151.24-12.75 154.59-13.4L154.59-13.4 164.49-15.35 164.49-12.05 156.44-10.4Q153.99-9.9 152.79-9 151.59-8.1 151.59-6.5L151.59-6.5Q151.59-4.95 152.81-3.98 154.04-3 156.29-3L156.29-3Q157.74-3 159.06-3.38 160.39-3.75 161.44-4.53 162.49-5.3 163.09-6.48 163.69-7.65 163.69-9.25L163.69-9.25ZM181.39 0L177.39 0 177.39-25 180.64-25 181.19-20.9Q182.24-23.2 184.26-24.35 186.29-25.5 189.19-25.5L189.19-25.5Q189.84-25.5 190.61-25.4 191.39-25.3 191.94-25L191.94-25 191.24-21.35Q190.69-21.55 190.04-21.65 189.39-21.75 188.19-21.75L188.19-21.75Q186.64-21.75 185.06-20.85 183.49-19.95 182.44-18.13 181.39-16.3 181.39-13.5L181.39-13.5 181.39 0ZM208.23 0.5L208.23 0.5Q204.68 0.5 201.91-1.05 199.13-2.6 197.58-5.53 196.03-8.45 196.03-12.5L196.03-12.5Q196.03-16.55 197.58-19.48 199.13-22.4 201.83-23.95 204.53-25.5 207.98-25.5L207.98-25.5Q211.48-25.5 213.96-24 216.43-22.5 217.73-19.93 219.03-17.35 219.03-14.15L219.03-14.15Q219.03-13.3 218.98-12.6 218.93-11.9 218.83-11.35L218.83-11.35 198.63-11.35 198.63-14.9 217.08-14.9 215.03-14.5Q215.03-18.1 213.06-20.05 211.08-22 207.88-22L207.88-22Q205.43-22 203.66-20.88 201.88-19.75 200.91-17.63 199.93-15.5 199.93-12.5L199.93-12.5Q199.93-9.55 200.93-7.4 201.93-5.25 203.76-4.13 205.58-3 208.13-3L208.13-3Q210.88-3 212.61-4.05 214.33-5.1 215.38-6.9L215.38-6.9 218.53-5.05Q217.58-3.35 216.11-2.1 214.63-0.85 212.66-0.18 210.68 0.5 208.23 0.5ZM268.33 0L244.43 0 244.43-33 267.58-33 267.58-29.25 248.43-29.25 248.43-18.6 263.33-18.6 263.33-14.85 248.43-14.85 248.43-3.75 268.33-3.75 268.33 0ZM279.58 0L275.58 0 275.58-25 279.08-25 279.43-19.4 278.78-19.95Q279.58-21.95 280.93-23.18 282.28-24.4 284.05-24.95 285.83-25.5 287.73-25.5L287.73-25.5Q290.43-25.5 292.63-24.48 294.83-23.45 296.15-21.35 297.48-19.25 297.48-16L297.48-16 297.48 0 293.48 0 293.48-14.6Q293.48-18.75 291.7-20.38 289.93-22 287.33-22L287.33-22Q285.53-22 283.73-21.15 281.93-20.3 280.75-18.4 279.58-16.5 279.58-13.3L279.58-13.3 279.58 0ZM327.57-29.6L327.57-29.6 328.47-26.05Q328.42-26.05 328.32-26.05 328.22-26.05 328.12-26.05L328.12-26.05Q325.67-26.05 324.35-25.08 323.02-24.1 323.02-21.95L323.02-21.95 320.57-23.2Q320.57-25.15 321.47-26.6 322.37-28.05 323.92-28.83 325.47-29.6 327.32-29.6L327.32-29.6Q327.37-29.6 327.45-29.6 327.52-29.6 327.57-29.6ZM312.67-3.2L319.97-3.2Q323.52-3.2 325.52-1.58 327.52 0.05 327.52 2.75L327.52 2.75Q327.52 5.2 325.9 7 324.27 8.8 321.55 9.78 318.82 10.75 315.42 10.75L315.42 10.75Q309.52 10.75 306.6 8.75 303.67 6.75 303.67 3.95L303.67 3.95Q303.67 1.95 305 0.38 306.32-1.2 309.47-1.4L309.47-1.4 309.12-0.65Q307.42-1.1 306.25-2.18 305.07-3.25 305.07-5.3L305.07-5.3Q305.07-7.35 306.6-8.83 308.12-10.3 311.12-10.65L311.12-10.65 313.77-9.3 313.27-9.3Q310.82-9.05 309.8-8.08 308.77-7.1 308.77-5.95L308.77-5.95Q308.77-4.55 309.8-3.88 310.82-3.2 312.67-3.2L312.67-3.2ZM315.37 7.4L315.37 7.4Q318.27 7.4 320.15 6.8 322.02 6.2 322.92 5.25 323.82 4.3 323.82 3.2L323.82 3.2Q323.82 1.85 322.75 1.05 321.67 0.25 318.87 0.25L318.87 0.25 311.17 0.25Q309.57 0.25 308.47 1.07 307.37 1.9 307.37 3.35L307.37 3.35Q307.37 5.2 309.5 6.3 311.62 7.4 315.37 7.4ZM315.02-25.5L315.02-25.5Q318.02-25.5 320.35-24.43 322.67-23.35 323.97-21.45 325.27-19.55 325.27-17.05L325.27-17.05Q325.27-14.6 323.97-12.68 322.67-10.75 320.35-9.68 318.02-8.6 315.02-8.6L315.02-8.6Q310.07-8.6 307.42-10.98 304.77-13.35 304.77-17.05L304.77-17.05Q304.77-19.55 306.1-21.45 307.42-23.35 309.72-24.43 312.02-25.5 315.02-25.5ZM315.02-22.25L315.02-22.25Q312.42-22.25 310.67-20.83 308.92-19.4 308.92-17.05L308.92-17.05Q308.92-14.75 310.67-13.3 312.42-11.85 315.02-11.85L315.02-11.85Q317.62-11.85 319.37-13.3 321.12-14.75 321.12-17.05L321.12-17.05Q321.12-19.4 319.37-20.83 317.62-22.25 315.02-22.25ZM335.12-29.8L335.12-29.8Q333.77-29.8 332.95-30.63 332.12-31.45 332.12-32.8L332.12-32.8Q332.12-34.15 332.95-34.98 333.77-35.8 335.12-35.8L335.12-35.8Q336.47-35.8 337.3-34.98 338.12-34.15 338.12-32.8L338.12-32.8Q338.12-31.45 337.3-30.63 336.47-29.8 335.12-29.8ZM333.12-25L337.12-25 337.12 0 333.12 0 333.12-25ZM350.42 0L346.42 0 346.42-25 349.92-25 350.27-19.4 349.62-19.95Q350.42-21.95 351.77-23.18 353.12-24.4 354.89-24.95 356.67-25.5 358.57-25.5L358.57-25.5Q361.27-25.5 363.47-24.48 365.67-23.45 366.99-21.35 368.32-19.25 368.32-16L368.32-16 368.32 0 364.32 0 364.32-14.6Q364.32-18.75 362.54-20.38 360.77-22 358.17-22L358.17-22Q356.37-22 354.57-21.15 352.77-20.3 351.59-18.4 350.42-16.5 350.42-13.3L350.42-13.3 350.42 0ZM387.82 0.5L387.82 0.5Q384.27 0.5 381.49-1.05 378.72-2.6 377.17-5.53 375.62-8.45 375.62-12.5L375.62-12.5Q375.62-16.55 377.17-19.48 378.72-22.4 381.42-23.95 384.12-25.5 387.57-25.5L387.57-25.5Q391.07-25.5 393.54-24 396.02-22.5 397.32-19.93 398.62-17.35 398.62-14.15L398.62-14.15Q398.62-13.3 398.57-12.6 398.52-11.9 398.42-11.35L398.42-11.35 378.22-11.35 378.22-14.9 396.67-14.9 394.62-14.5Q394.62-18.1 392.64-20.05 390.67-22 387.47-22L387.47-22Q385.02-22 383.24-20.88 381.47-19.75 380.49-17.63 379.52-15.5 379.52-12.5L379.52-12.5Q379.52-9.55 380.52-7.4 381.52-5.25 383.34-4.13 385.17-3 387.72-3L387.72-3Q390.47-3 392.19-4.05 393.92-5.1 394.97-6.9L394.97-6.9 398.12-5.05Q397.17-3.35 395.69-2.1 394.22-0.85 392.24-0.18 390.27 0.5 387.82 0.5ZM416.66 0.5L416.66 0.5Q413.11 0.5 410.34-1.05 407.56-2.6 406.01-5.53 404.46-8.45 404.46-12.5L404.46-12.5Q404.46-16.55 406.01-19.48 407.56-22.4 410.26-23.95 412.96-25.5 416.41-25.5L416.41-25.5Q419.91-25.5 422.39-24 424.86-22.5 426.16-19.93 427.46-17.35 427.46-14.15L427.46-14.15Q427.46-13.3 427.41-12.6 427.36-11.9 427.26-11.35L427.26-11.35 407.06-11.35 407.06-14.9 425.51-14.9 423.46-14.5Q423.46-18.1 421.49-20.05 419.51-22 416.31-22L416.31-22Q413.86-22 412.09-20.88 410.31-19.75 409.34-17.63 408.36-15.5 408.36-12.5L408.36-12.5Q408.36-9.55 409.36-7.4 410.36-5.25 412.19-4.13 414.01-3 416.56-3L416.56-3Q419.31-3 421.04-4.05 422.76-5.1 423.81-6.9L423.81-6.9 426.96-5.05Q426.01-3.35 424.54-2.1 423.06-0.85 421.09-0.18 419.11 0.5 416.66 0.5ZM439.06 0L435.06 0 435.06-25 438.31-25 438.86-20.9Q439.91-23.2 441.94-24.35 443.96-25.5 446.86-25.5L446.86-25.5Q447.51-25.5 448.29-25.4 449.06-25.3 449.61-25L449.61-25 448.91-21.35Q448.36-21.55 447.71-21.65 447.06-21.75 445.86-21.75L445.86-21.75Q444.31-21.75 442.74-20.85 441.16-19.95 440.11-18.13 439.06-16.3 439.06-13.5L439.06-13.5 439.06 0Z" opacity="1" transform="matrix(1,0,0,1,0,0)" fill="#000000" class="undefined-text-1" data-fill-palette-color="secondary" id="text-1"></path></svg></g></svg></g></svg></g></svg></g><g></g></svg></g></svg></g></svg></g><g mask="url(&quot;#a8a2a21e-3ae5-424b-a436-639198906290&quot;)"><g transform="matrix(2.45597874853106, 0, 0, 2.45597874853106, 91.19385628542821, 1)"><svg xmlns="http://www.w3.org/2000/svg" xmlns:xlink="http://www.w3.org/1999/xlink" version="1.1" x="0" y="0" viewBox="6.610998153686523 0.16200017929077148 86.78099822998047 99.83799743652344" enable-background="new 0 0 100 100" xml:space="preserve" height="99.83799743652344" width="86.78099822998047" class="icon-none" data-fill-palette-color="accent" id="none"><g fill="#bb84e8" data-fill-palette-color="accent"><path fill="#000000" d="M71.975 58.333c2.676-3.399 4.575-7.432 5.445-11.832 0.296 0.096 0.592 0.19 0.888 0.29 2.12 0.759 4.526-0.25 5.36-2.261 0.833-2.012-0.312-4.514-2.637-5.346-0.997-0.337-1.566-0.653-2.566-0.958L79 30.997v-0.042c0-7.5-3.236-14.604-8.518-20C67.813 8.223 64 6.108 61 4.679V4.105c0-2.177-1.848-3.942-4.025-3.942-1.68 0-3.148 1.052-3.711 2.532-1.026-0.116-2.091-0.177-3.137-0.177-1.048 0-2.101 0.061-3.129 0.175-0.563-1.479-1.688-2.531-3.368-2.531-2.177 0-3.63 1.765-3.63 3.942v0.557c-3 1.417-6.774 3.512-9.44 6.217-5.285 5.363-8.344 12.445-8.344 19.942l0.024 7.405c-0.999 0.305-2.036 0.621-3.033 0.958-2.308 0.826-3.467 3.295-2.67 5.298 0.003 0.008-0.005 0.015-0.003 0.021 0.001 0.001-0.003 0.003-0.002 0.005 0.005 0.014 0.006 0.022 0.006 0.022s-0.005-0.008-0.011-0.022c0-0.001-0.002-0.003-0.003-0.005-0.002-0.006-0.005-0.013-0.008-0.021 0.006 0.016 0.009 0.032 0.016 0.048 0.834 2.011 3.24 3.02 5.361 2.261 0.233-0.079 0.467-0.152 0.7-0.229 0.876 4.375 2.771 8.388 5.435 11.771-12.806 7.552-21.417 21.489-21.417 37.4 0 2.039 1.653 3.692 3.692 3.692s3.693-1.653 3.693-3.692c0-13.947 7.972-26.067 19.599-32.045 4.611 3.354 10.282 5.336 16.407 5.336s11.795-1.982 16.407-5.336c11.627 5.978 19.6 18.098 19.6 32.045 0 2.039 1.652 3.692 3.691 3.692 2.04 0 3.692-1.653 3.692-3.692C93.391 79.822 84.78 65.886 71.975 58.333zM30.252 21.646C32.196 17.245 36 13.583 40 11.261v8.724c0 0.348 0 3.942 3.83 3.942 3.17 0 4.17-1.765 4.17-3.942V8.646c1-0.123 1.535-0.186 2.502-0.186C51.468 8.459 52 8.523 53 8.646v11.339c0 2.177 1.666 3.942 3.844 3.942C61 23.927 61 20.336 61 19.985v-8.71c4 2.335 7.346 6.019 9.316 10.447 1.27 2.85 1.843 6.007 1.845 9.315L72 36.091v0.691l-2.48-0.527c-12.936-2.637-25.993-2.637-38.931 0l-2.526 0.527-0.02-1.431 0.09-4.445C28.135 27.618 29.001 24.479 30.252 21.646zM60.342 61.244C57.238 62.842 53.725 63.75 50 63.75c-3.725 0-7.238-0.908-10.342-2.506-2.603-1.34-4.914-3.167-6.813-5.362-2.613-3.021-4.443-6.737-5.173-10.829 14.816-3.942 29.844-3.958 44.662-0.05-0.724 4.111-2.557 7.845-5.181 10.879C65.256 58.077 62.944 59.904 60.342 61.244z" data-fill-palette-color="accent"></path><path fill="#000000" d="M73.608 81.637c-2.91 0.056-5.859 0.085-8.769 0.085-2.908 0-5.858-0.029-8.768-0.085l-1.999-0.039-0.135 15.436 1.065 0.563C57.981 99.168 61.383 100 64.84 100s6.858-0.832 9.837-2.405l1.064-0.562-0.134-15.436L73.608 81.637zM64.84 96.044c-2.409 0-4.779-0.493-6.924-1.433l0.079-8.985c4.561 0.068 9.128 0.068 13.691 0l0.078 8.985C69.619 95.551 67.249 96.044 64.84 96.044z" data-fill-palette-color="accent"></path></g></svg></g></g><mask id="a8a2a21e-3ae5-424b-a436-639198906290"><rect width="640" height="400" fill="white"></rect><g transform="matrix(1,0,0,1,39.55199999999999,58.107246677893926)"><svg viewBox="0 0 316.416 130.98550664421214" height="130.98550664421214" width="316.416"><g><svg viewBox="0 0 316.416 130.98550664421214" height="130.98550664421214" width="316.416"><g><svg viewBox="0 0 316.416 130.98550664421214" height="130.98550664421214" width="316.416"><g><svg viewBox="0 0 316.416 130.98550664421214" height="130.98550664421214" width="316.416"><g id="SvgjsG1067"><svg viewBox="0 0 316.416 130.98550664421214" height="130.98550664421214" width="316.416" id="SvgjsSvg1066"><g><svg viewBox="0 0 316.416 78.30482157753268" height="78.30482157753268" width="316.416"><g transform="matrix(1,0,0,1,0,0)"><svg width="316.416" viewBox="-2.566666603088379 -41 180.80667114257812 45.5" height="78.30482157753268" data-palette-color="#35185a"><path d="M15.5-31.35L16.4-31.15 4.25-0.95Q4.05-0.45 3.7-0.2 3.35 0.05 2.9 0.05L2.9 0.05Q2.2 0.05 1.85-0.33 1.5-0.7 1.45-1.25L1.45-1.25Q1.4-1.5 1.5-1.85L1.5-1.85 14.7-34.15Q14.95-34.7 15.33-34.93 15.7-35.15 16.2-35.15L16.2-35.15Q16.7-35.15 17.07-34.88 17.45-34.6 17.65-34.15L17.65-34.15 30.8-2Q30.9-1.7 30.9-1.4L30.9-1.4Q30.9-0.7 30.45-0.33 30 0.05 29.4 0.05L29.4 0.05Q28.9 0.05 28.53-0.23 28.15-0.5 27.95-0.95L27.95-0.95 15.5-31.35ZM24.5-10.1L7.15-10.1 8.4-13.05 23.9-13.05 24.5-10.1ZM48.35-26.15L48.35-26.15Q51.65-26.15 53.62-24.83 55.6-23.5 56.47-21.23 57.35-18.95 57.35-16.2L57.35-16.2 57.35-1.5Q57.35-0.9 56.9-0.45 56.45 0 55.85 0L55.85 0Q55.15 0 54.75-0.45 54.35-0.9 54.35-1.5L54.35-1.5 54.35-16.05Q54.35-18.05 53.7-19.7 53.05-21.35 51.57-22.35 50.1-23.35 47.7-23.35L47.7-23.35Q45.55-23.35 43.62-22.35 41.7-21.35 40.5-19.7 39.3-18.05 39.3-16.05L39.3-16.05 39.3-1.5Q39.3-0.9 38.85-0.45 38.4 0 37.8 0L37.8 0Q37.1 0 36.7-0.45 36.3-0.9 36.3-1.5L36.3-1.5 36.3-23.9Q36.3-24.5 36.72-24.95 37.15-25.4 37.8-25.4L37.8-25.4Q38.45-25.4 38.87-24.95 39.3-24.5 39.3-23.9L39.3-23.9 39.3-19.7 38.15-17.9Q38.25-19.5 39.17-20.98 40.1-22.45 41.55-23.63 43-24.8 44.77-25.48 46.55-26.15 48.35-26.15ZM68.09-24.5L68.09-1.5Q68.09-0.9 67.65-0.45 67.2 0 66.59 0L66.59 0Q65.95 0 65.52-0.45 65.09-0.9 65.09-1.5L65.09-1.5 65.09-24.5Q65.09-25.1 65.52-25.55 65.95-26 66.59-26L66.59-26Q67.25-26 67.67-25.55 68.09-25.1 68.09-24.5L68.09-24.5ZM66.59-29.35L66.59-29.35Q65.55-29.35 65.02-29.83 64.5-30.3 64.5-31.2L64.5-31.2 64.5-31.7Q64.5-32.6 65.07-33.08 65.65-33.55 66.65-33.55L66.65-33.55Q67.59-33.55 68.12-33.08 68.65-32.6 68.65-31.7L68.65-31.7 68.65-31.2Q68.65-30.3 68.12-29.83 67.59-29.35 66.59-29.35ZM77.39 0L77.39 0Q76.69 0 76.29-0.45 75.89-0.9 75.89-1.5L75.89-1.5 75.89-23.9Q75.89-24.5 76.32-24.95 76.74-25.4 77.39-25.4L77.39-25.4Q78.04-25.4 78.47-24.95 78.89-24.5 78.89-23.9L78.89-23.9 78.89-16.4 78.14-16.25Q78.29-18 79.02-19.73 79.74-21.45 80.99-22.9 82.24-24.35 83.97-25.25 85.69-26.15 87.84-26.15L87.84-26.15Q88.74-26.15 89.59-25.78 90.44-25.4 90.44-24.55L90.44-24.55Q90.44-23.8 90.04-23.4 89.64-23 89.09-23L89.09-23Q88.64-23 88.12-23.25 87.59-23.5 86.74-23.5L86.74-23.5Q85.34-23.5 83.94-22.68 82.54-21.85 81.39-20.45 80.24-19.05 79.57-17.32 78.89-15.6 78.89-13.85L78.89-13.85 78.89-1.5Q78.89-0.9 78.44-0.45 77.99 0 77.39 0ZM114.24-25.4L114.24-25.4Q114.89-25.4 115.32-24.95 115.74-24.5 115.74-23.9L115.74-23.9 115.74-9.8Q115.74-4.85 112.94-2.25 110.14 0.35 105.39 0.35L105.39 0.35Q100.69 0.35 97.92-2.25 95.14-4.85 95.14-9.8L95.14-9.8 95.14-23.9Q95.14-24.5 95.57-24.95 95.99-25.4 96.64-25.4L96.64-25.4Q97.29-25.4 97.72-24.95 98.14-24.5 98.14-23.9L98.14-23.9 98.14-9.8Q98.14-6.2 100.07-4.33 101.99-2.45 105.39-2.45L105.39-2.45Q108.84-2.45 110.79-4.33 112.74-6.2 112.74-9.8L112.74-9.8 112.74-23.9Q112.74-24.5 113.14-24.95 113.54-25.4 114.24-25.4ZM144.34-37L144.34-37Q144.99-37 145.41-36.58 145.84-36.15 145.84-35.5L145.84-35.5 145.84-1.5Q145.84-0.9 145.39-0.45 144.94 0 144.34 0L144.34 0Q143.64 0 143.24-0.45 142.84-0.9 142.84-1.5L142.84-1.5 142.84-7.45 143.69-8.15Q143.69-6.75 142.94-5.23 142.19-3.7 140.81-2.4 139.44-1.1 137.61-0.3 135.79 0.5 133.64 0.5L133.64 0.5Q130.34 0.5 127.66-1.25 124.99-3 123.44-6 121.89-9 121.89-12.85L121.89-12.85Q121.89-16.65 123.44-19.68 124.99-22.7 127.64-24.43 130.29-26.15 133.59-26.15L133.59-26.15Q135.69-26.15 137.54-25.4 139.39-24.65 140.81-23.35 142.24-22.05 143.06-20.38 143.89-18.7 143.89-16.9L143.89-16.9 142.84-17.65 142.84-35.5Q142.84-36.1 143.24-36.55 143.64-37 144.34-37ZM133.94-2.3L133.94-2.3Q136.59-2.3 138.64-3.68 140.69-5.05 141.86-7.43 143.04-9.8 143.04-12.85L143.04-12.85Q143.04-15.85 141.86-18.23 140.69-20.6 138.64-21.98 136.59-23.35 133.94-23.35L133.94-23.35Q131.34-23.35 129.26-21.98 127.19-20.6 126.01-18.23 124.84-15.85 124.84-12.85L124.84-12.85Q124.84-9.85 126.01-7.45 127.19-5.05 129.26-3.68 131.34-2.3 133.94-2.3ZM165.34-25.75L165.34-25.75Q168.49-25.75 170.44-24.4 172.39-23.05 173.31-20.75 174.24-18.45 174.24-15.65L174.24-15.65 174.24-1.5Q174.24-0.9 173.79-0.45 173.34 0 172.74 0L172.74 0Q172.04 0 171.64-0.45 171.24-0.9 171.24-1.5L171.24-1.5 171.24-15.65Q171.24-17.7 170.61-19.35 169.99-21 168.59-21.98 167.19-22.95 164.84-22.95L164.84-22.95Q162.74-22.95 160.86-21.98 158.99-21 157.84-19.35 156.69-17.7 156.69-15.65L156.69-15.65 156.69-1.5Q156.69-0.9 156.24-0.45 155.79 0 155.19 0L155.19 0Q154.49 0 154.09-0.45 153.69-0.9 153.69-1.5L153.69-1.5 153.69-35.5Q153.69-36.1 154.11-36.55 154.54-37 155.19-37L155.19-37Q155.84-37 156.26-36.55 156.69-36.1 156.69-35.5L156.69-35.5 156.69-19.3 155.54-17.55Q155.64-19.1 156.51-20.58 157.39-22.05 158.79-23.23 160.19-24.4 161.89-25.08 163.59-25.75 165.34-25.75Z" opacity="1" transform="matrix(1,0,0,1,0,0)" fill="#000000" class="undefined-text-0" data-fill-palette-color="primary" id="SvgjsPath1065" stroke-width="7" stroke="black" stroke-linejoin="round"></path></svg></g></svg></g><g transform="matrix(1,0,0,1,3.5,93.88281797534526)"><svg viewBox="0 0 309.416 37.10268866886688" height="37.10268866886688" width="309.416"><g transform="matrix(1,0,0,1,0,0)"><svg width="309.416" viewBox="-1.8499999046325684 -40.75 455.4599914550781 55.5" height="37.10268866886688" data-palette-color="#35185a"><path d="M16-33.5L16-33.5Q20.35-33.5 23.5-31.73 26.65-29.95 28.75-26.5L28.75-26.5 25.4-23.9Q23.55-27.1 21.23-28.43 18.9-29.75 15.6-29.75L15.6-29.75Q12.95-29.75 11.23-29 9.5-28.25 8.7-27.03 7.9-25.8 7.9-24.25L7.9-24.25Q7.9-22.5 9-21.18 10.1-19.85 13.4-19.1L13.4-19.1 20.55-17.5Q25.3-16.45 27.18-14.33 29.05-12.2 29.05-9.05L29.05-9.05Q29.05-6.25 27.48-4.08 25.9-1.9 23.05-0.7 20.2 0.5 16.35 0.5L16.35 0.5Q12.75 0.5 10.03-0.48 7.3-1.45 5.35-3.1 3.4-4.75 2.15-6.8L2.15-6.8 5.65-9.65Q6.6-7.75 8.1-6.3 9.6-4.85 11.73-4.05 13.85-3.25 16.6-3.25L16.6-3.25Q19.15-3.25 21.03-3.88 22.9-4.5 23.9-5.73 24.9-6.95 24.9-8.7L24.9-8.7Q24.9-10.3 23.85-11.58 22.8-12.85 19.9-13.5L19.9-13.5 12.15-15.25Q9.1-15.95 7.23-17.18 5.35-18.4 4.53-20.08 3.7-21.75 3.7-23.7L3.7-23.7Q3.7-26.35 5.18-28.58 6.65-30.8 9.43-32.15 12.2-33.5 16-33.5ZM47.05-25.5L47.05-25.5Q50.6-25.5 53.32-23.95 56.05-22.4 57.6-19.48 59.15-16.55 59.15-12.5L59.15-12.5Q59.15-8.45 57.6-5.53 56.05-2.6 53.32-1.05 50.6 0.5 47.05 0.5L47.05 0.5Q43.55 0.5 40.8-1.05 38.05-2.6 36.5-5.53 34.95-8.45 34.95-12.5L34.95-12.5Q34.95-16.55 36.5-19.48 38.05-22.4 40.8-23.95 43.55-25.5 47.05-25.5ZM47.05-22.05L47.05-22.05Q44.5-22.05 42.7-20.9 40.9-19.75 39.92-17.63 38.95-15.5 38.95-12.5L38.95-12.5Q38.95-9.55 39.92-7.4 40.9-5.25 42.7-4.1 44.5-2.95 47.05-2.95L47.05-2.95Q49.6-2.95 51.4-4.1 53.2-5.25 54.17-7.4 55.15-9.55 55.15-12.5L55.15-12.5Q55.15-15.5 54.17-17.63 53.2-19.75 51.4-20.9 49.6-22.05 47.05-22.05ZM76.85-36.75L76.85-36.75Q78.15-36.75 79.3-36.45 80.45-36.15 81.1-35.6L81.1-35.6 80.05-32.35Q79.45-32.75 78.75-32.93 78.05-33.1 77.2-33.1L77.2-33.1Q75.05-33.1 73.85-32.08 72.65-31.05 72.65-28.8L72.65-28.8 72.65-25 72.65-23.7 72.65 0 68.65 0 68.65-29.2Q68.65-30.85 69.15-32.25 69.65-33.65 70.67-34.65 71.7-35.65 73.25-36.2 74.8-36.75 76.85-36.75ZM63.65-25L81-25 81-21.55 63.65-21.55 63.65-25ZM88.24-31L92.24-32.1 92.24-6.9Q92.24-5.05 93.29-4.15 94.34-3.25 95.99-3.25L95.99-3.25Q97.44-3.25 98.49-3.75 99.54-4.25 100.39-5.1L100.39-5.1 101.79-1.75Q100.64-0.7 99.07-0.1 97.49 0.5 95.44 0.5L95.44 0.5Q93.54 0.5 91.89-0.18 90.24-0.85 89.27-2.33 88.29-3.8 88.24-6.2L88.24-6.2 88.24-31ZM83.24-25L101.34-25 101.34-21.55 83.24-21.55 83.24-25ZM132.34-4.65L138.64-25 143.09-25 134.39 0 130.39 0 123.34-19.9 116.69 0 112.69 0 103.99-25 108.44-25 114.74-4.65 121.54-25 125.54-25 132.34-4.65ZM163.69-9.25L163.69-16.15Q163.69-18.95 162.19-20.48 160.69-22 157.94-22L157.94-22Q155.34-22 153.54-20.88 151.74-19.75 150.89-17.25L150.89-17.25 147.64-19.25Q148.64-22.05 151.34-23.78 154.04-25.5 158.04-25.5L158.04-25.5Q160.74-25.5 162.94-24.58 165.14-23.65 166.41-21.78 167.69-19.9 167.69-16.95L167.69-16.95 167.69-4.85Q167.69-3.05 169.59-3.05L169.59-3.05Q170.54-3.05 171.44-3.3L171.44-3.3 171.24-0.15Q170.24 0.35 168.64 0.35L168.64 0.35Q167.19 0.35 166.04-0.2 164.89-0.75 164.24-1.88 163.59-3 163.59-4.7L163.59-4.7 163.59-5.2 164.59-5.05Q163.99-3.1 162.54-1.88 161.09-0.65 159.29-0.08 157.49 0.5 155.74 0.5L155.74 0.5Q153.54 0.5 151.64-0.25 149.74-1 148.61-2.53 147.49-4.05 147.49-6.3L147.49-6.3Q147.49-9.1 149.36-10.93 151.24-12.75 154.59-13.4L154.59-13.4 164.49-15.35 164.49-12.05 156.44-10.4Q153.99-9.9 152.79-9 151.59-8.1 151.59-6.5L151.59-6.5Q151.59-4.95 152.81-3.98 154.04-3 156.29-3L156.29-3Q157.74-3 159.06-3.38 160.39-3.75 161.44-4.53 162.49-5.3 163.09-6.48 163.69-7.65 163.69-9.25L163.69-9.25ZM181.39 0L177.39 0 177.39-25 180.64-25 181.19-20.9Q182.24-23.2 184.26-24.35 186.29-25.5 189.19-25.5L189.19-25.5Q189.84-25.5 190.61-25.4 191.39-25.3 191.94-25L191.94-25 191.24-21.35Q190.69-21.55 190.04-21.65 189.39-21.75 188.19-21.75L188.19-21.75Q186.64-21.75 185.06-20.85 183.49-19.95 182.44-18.13 181.39-16.3 181.39-13.5L181.39-13.5 181.39 0ZM208.23 0.5L208.23 0.5Q204.68 0.5 201.91-1.05 199.13-2.6 197.58-5.53 196.03-8.45 196.03-12.5L196.03-12.5Q196.03-16.55 197.58-19.48 199.13-22.4 201.83-23.95 204.53-25.5 207.98-25.5L207.98-25.5Q211.48-25.5 213.96-24 216.43-22.5 217.73-19.93 219.03-17.35 219.03-14.15L219.03-14.15Q219.03-13.3 218.98-12.6 218.93-11.9 218.83-11.35L218.83-11.35 198.63-11.35 198.63-14.9 217.08-14.9 215.03-14.5Q215.03-18.1 213.06-20.05 211.08-22 207.88-22L207.88-22Q205.43-22 203.66-20.88 201.88-19.75 200.91-17.63 199.93-15.5 199.93-12.5L199.93-12.5Q199.93-9.55 200.93-7.4 201.93-5.25 203.76-4.13 205.58-3 208.13-3L208.13-3Q210.88-3 212.61-4.05 214.33-5.1 215.38-6.9L215.38-6.9 218.53-5.05Q217.58-3.35 216.11-2.1 214.63-0.85 212.66-0.18 210.68 0.5 208.23 0.5ZM268.33 0L244.43 0 244.43-33 267.58-33 267.58-29.25 248.43-29.25 248.43-18.6 263.33-18.6 263.33-14.85 248.43-14.85 248.43-3.75 268.33-3.75 268.33 0ZM279.58 0L275.58 0 275.58-25 279.08-25 279.43-19.4 278.78-19.95Q279.58-21.95 280.93-23.18 282.28-24.4 284.05-24.95 285.83-25.5 287.73-25.5L287.73-25.5Q290.43-25.5 292.63-24.48 294.83-23.45 296.15-21.35 297.48-19.25 297.48-16L297.48-16 297.48 0 293.48 0 293.48-14.6Q293.48-18.75 291.7-20.38 289.93-22 287.33-22L287.33-22Q285.53-22 283.73-21.15 281.93-20.3 280.75-18.4 279.58-16.5 279.58-13.3L279.58-13.3 279.58 0ZM327.57-29.6L327.57-29.6 328.47-26.05Q328.42-26.05 328.32-26.05 328.22-26.05 328.12-26.05L328.12-26.05Q325.67-26.05 324.35-25.08 323.02-24.1 323.02-21.95L323.02-21.95 320.57-23.2Q320.57-25.15 321.47-26.6 322.37-28.05 323.92-28.83 325.47-29.6 327.32-29.6L327.32-29.6Q327.37-29.6 327.45-29.6 327.52-29.6 327.57-29.6ZM312.67-3.2L319.97-3.2Q323.52-3.2 325.52-1.58 327.52 0.05 327.52 2.75L327.52 2.75Q327.52 5.2 325.9 7 324.27 8.8 321.55 9.78 318.82 10.75 315.42 10.75L315.42 10.75Q309.52 10.75 306.6 8.75 303.67 6.75 303.67 3.95L303.67 3.95Q303.67 1.95 305 0.38 306.32-1.2 309.47-1.4L309.47-1.4 309.12-0.65Q307.42-1.1 306.25-2.18 305.07-3.25 305.07-5.3L305.07-5.3Q305.07-7.35 306.6-8.83 308.12-10.3 311.12-10.65L311.12-10.65 313.77-9.3 313.27-9.3Q310.82-9.05 309.8-8.08 308.77-7.1 308.77-5.95L308.77-5.95Q308.77-4.55 309.8-3.88 310.82-3.2 312.67-3.2L312.67-3.2ZM315.37 7.4L315.37 7.4Q318.27 7.4 320.15 6.8 322.02 6.2 322.92 5.25 323.82 4.3 323.82 3.2L323.82 3.2Q323.82 1.85 322.75 1.05 321.67 0.25 318.87 0.25L318.87 0.25 311.17 0.25Q309.57 0.25 308.47 1.07 307.37 1.9 307.37 3.35L307.37 3.35Q307.37 5.2 309.5 6.3 311.62 7.4 315.37 7.4ZM315.02-25.5L315.02-25.5Q318.02-25.5 320.35-24.43 322.67-23.35 323.97-21.45 325.27-19.55 325.27-17.05L325.27-17.05Q325.27-14.6 323.97-12.68 322.67-10.75 320.35-9.68 318.02-8.6 315.02-8.6L315.02-8.6Q310.07-8.6 307.42-10.98 304.77-13.35 304.77-17.05L304.77-17.05Q304.77-19.55 306.1-21.45 307.42-23.35 309.72-24.43 312.02-25.5 315.02-25.5ZM315.02-22.25L315.02-22.25Q312.42-22.25 310.67-20.83 308.92-19.4 308.92-17.05L308.92-17.05Q308.92-14.75 310.67-13.3 312.42-11.85 315.02-11.85L315.02-11.85Q317.62-11.85 319.37-13.3 321.12-14.75 321.12-17.05L321.12-17.05Q321.12-19.4 319.37-20.83 317.62-22.25 315.02-22.25ZM335.12-29.8L335.12-29.8Q333.77-29.8 332.95-30.63 332.12-31.45 332.12-32.8L332.12-32.8Q332.12-34.15 332.95-34.98 333.77-35.8 335.12-35.8L335.12-35.8Q336.47-35.8 337.3-34.98 338.12-34.15 338.12-32.8L338.12-32.8Q338.12-31.45 337.3-30.63 336.47-29.8 335.12-29.8ZM333.12-25L337.12-25 337.12 0 333.12 0 333.12-25ZM350.42 0L346.42 0 346.42-25 349.92-25 350.27-19.4 349.62-19.95Q350.42-21.95 351.77-23.18 353.12-24.4 354.89-24.95 356.67-25.5 358.57-25.5L358.57-25.5Q361.27-25.5 363.47-24.48 365.67-23.45 366.99-21.35 368.32-19.25 368.32-16L368.32-16 368.32 0 364.32 0 364.32-14.6Q364.32-18.75 362.54-20.38 360.77-22 358.17-22L358.17-22Q356.37-22 354.57-21.15 352.77-20.3 351.59-18.4 350.42-16.5 350.42-13.3L350.42-13.3 350.42 0ZM387.82 0.5L387.82 0.5Q384.27 0.5 381.49-1.05 378.72-2.6 377.17-5.53 375.62-8.45 375.62-12.5L375.62-12.5Q375.62-16.55 377.17-19.48 378.72-22.4 381.42-23.95 384.12-25.5 387.57-25.5L387.57-25.5Q391.07-25.5 393.54-24 396.02-22.5 397.32-19.93 398.62-17.35 398.62-14.15L398.62-14.15Q398.62-13.3 398.57-12.6 398.52-11.9 398.42-11.35L398.42-11.35 378.22-11.35 378.22-14.9 396.67-14.9 394.62-14.5Q394.62-18.1 392.64-20.05 390.67-22 387.47-22L387.47-22Q385.02-22 383.24-20.88 381.47-19.75 380.49-17.63 379.52-15.5 379.52-12.5L379.52-12.5Q379.52-9.55 380.52-7.4 381.52-5.25 383.34-4.13 385.17-3 387.72-3L387.72-3Q390.47-3 392.19-4.05 393.92-5.1 394.97-6.9L394.97-6.9 398.12-5.05Q397.17-3.35 395.69-2.1 394.22-0.85 392.24-0.18 390.27 0.5 387.82 0.5ZM416.66 0.5L416.66 0.5Q413.11 0.5 410.34-1.05 407.56-2.6 406.01-5.53 404.46-8.45 404.46-12.5L404.46-12.5Q404.46-16.55 406.01-19.48 407.56-22.4 410.26-23.95 412.96-25.5 416.41-25.5L416.41-25.5Q419.91-25.5 422.39-24 424.86-22.5 426.16-19.93 427.46-17.35 427.46-14.15L427.46-14.15Q427.46-13.3 427.41-12.6 427.36-11.9 427.26-11.35L427.26-11.35 407.06-11.35 407.06-14.9 425.51-14.9 423.46-14.5Q423.46-18.1 421.49-20.05 419.51-22 416.31-22L416.31-22Q413.86-22 412.09-20.88 410.31-19.75 409.34-17.63 408.36-15.5 408.36-12.5L408.36-12.5Q408.36-9.55 409.36-7.4 410.36-5.25 412.19-4.13 414.01-3 416.56-3L416.56-3Q419.31-3 421.04-4.05 422.76-5.1 423.81-6.9L423.81-6.9 426.96-5.05Q426.01-3.35 424.54-2.1 423.06-0.85 421.09-0.18 419.11 0.5 416.66 0.5ZM439.06 0L435.06 0 435.06-25 438.31-25 438.86-20.9Q439.91-23.2 441.94-24.35 443.96-25.5 446.86-25.5L446.86-25.5Q447.51-25.5 448.29-25.4 449.06-25.3 449.61-25L449.61-25 448.91-21.35Q448.36-21.55 447.71-21.65 447.06-21.75 445.86-21.75L445.86-21.75Q444.31-21.75 442.74-20.85 441.16-19.95 440.11-18.13 439.06-16.3 439.06-13.5L439.06-13.5 439.06 0Z" opacity="1" transform="matrix(1,0,0,1,0,0)" fill="#000000" class="undefined-text-1" data-fill-palette-color="secondary" id="SvgjsPath1064" stroke-width="7" stroke="black" stroke-linejoin="round"></path></svg></g></svg></g></svg></g></svg></g><g></g></svg></g></svg></g></svg></g></mask></svg></g><defs></defs></svg><rect width="395.52" height="247.2" fill="none" stroke="none" visibility="hidden"></rect></g></svg></g></svg>